<?xml version="1.0" standalone="no"?>
<!DOCTYPE svg PUBLIC "-//W3C//DTD SVG 1.1//EN" "http://www.w3.org/Graphics/SVG/1.1/DTD/svg11.dtd" >
<svg xmlns="http://www.w3.org/2000/svg" xmlns:xlink="http://www.w3.org/1999/xlink" version="1.1">
<metadata></metadata>
<defs>
<font id="lcdmono2bold" horiz-adv-x="1116" >
<font-face units-per-em="2048" ascent="1638" descent="-410" />
<missing-glyph horiz-adv-x="500" />
<glyph horiz-adv-x="0" />
<glyph unicode="&#xd;" />
<glyph unicode=" " />
<glyph unicode="!" d="M362 98l107 95l80 -95l-107 -94zM395 348l47 344l111 96l82 -96l-47 -344l-111 -96zM479 946l82 592l111 96l82 -96l-82 -592l-111 -96z" />
<glyph unicode="&#x22;" d="M303 1239l29 197l108 96l84 -96l-28 -197l-109 -96zM592 1239l29 197l108 96l84 -96l-29 -197l-108 -96z" />
<glyph unicode="$" d="M6 223l6 51l111 97l84 -97l-8 -51l-111 -96zM111 946l65 469l111 96l82 -96l-66 -469l-110 -96zM117 96l110 97h119l109 -125l141 125h119l84 -97l-111 -96h-487zM217 819l109 96h118l84 -96l-110 -96h-119zM319 1542l111 96h488l83 -96l-110 -96h-119l-106 125 l-144 -125h-119zM379 223l65 469l109 96l84 -96l-66 -469l-110 -96zM479 946l66 469l110 96l82 -96l-65 -469l-109 -96zM588 819l110 96h119l82 -96l-108 -96h-119zM750 223l65 469l111 96l82 -96l-66 -469l-108 -96zM909 1364l9 51l110 96l82 -96l-6 -51l-111 -96z" />
<glyph unicode="'" d="M449 1239l26 197l111 96l82 -96l-27 -197l-111 -96z" />
<glyph unicode="(" d="M270 223l80 576h88l90 -107l-65 -469l-111 -96zM356 840l80 575l111 96l84 -96l-68 -469l-119 -106h-88zM379 96l108 97h74l82 -97l-111 -96h-71zM582 1542l110 96h72l82 -96l-109 -96h-73z" />
<glyph unicode=")" d="M270 96l109 97h74l82 -97l-111 -96h-72zM473 1542l111 96h71l82 -96l-108 -96h-74zM485 223l68 469l119 107h88l-80 -576l-111 -96zM588 946l65 469l111 96l82 -96l-80 -575h-88z" />
<glyph unicode="*" d="M348 637l19 121l47 41h121l-17 -119l-49 -43h-121zM383 883l16 121h121l37 -43l-16 -119h-121zM559 680l16 119h121l37 -41l-16 -121h-121zM582 842l16 119l49 43h121l-18 -121l-48 -41h-120z" />
<glyph unicode="+" d="M195 819l110 96h139l84 -96l-110 -96h-139zM422 543l22 149l109 96l84 -96l-21 -149l-110 -97zM479 946l21 150l110 96l84 -96l-22 -150l-109 -96zM588 819l110 96h140l84 -96l-111 -96h-139z" />
<glyph unicode="," d="M440 -90l41 291l111 96l84 -96l-14 -97z" />
<glyph unicode="." d="M455 104l14 97l109 96l84 -96l-15 -97l-108 -96z" />
<glyph unicode="/" d="M-4 0l24 172l420 627h95l-33 -224l-387 -575h-119zM582 840l32 223l387 575h119l-24 -172l-420 -626h-94z" />
<glyph unicode="0" d="M8 223l66 469l108 96l84 -96l-65 -469l-111 -96zM109 946l65 469l111 96l84 -96l-68 -469l-108 -96zM117 96l108 97h490l82 -97l-111 -96h-487zM319 1542l111 96h488l81 -96l-108 -96h-490zM748 223l67 469l109 96l84 -96l-66 -469l-111 -96zM850 946l65 469l111 96 l82 -96l-66 -469l-108 -96z" />
<glyph unicode="1" d="M328 1217l14 98l195 172l-35 -260l-107 -90zM391 88l86 604l111 96l82 -96l-82 -592l-111 -96zM512 946l84 592l111 96l81 -96l-81 -592l-111 -96z" />
<glyph unicode="2" d="M-6 31l94 665l109 97l84 -97l-68 -473zM20 0l220 193h489l166 -193h-875zM180 1364l8 51l111 96l82 -96l-6 -51l-111 -96zM231 819l111 96h489l84 -96l-110 -96h-492zM332 1542l110 96h488l84 -96l-111 -96h-487zM864 946l66 469l110 96l82 -96l-65 -469l-111 -96z" />
<glyph unicode="3" d="M31 96l110 97h549l82 -97l-108 -96h-549zM233 1542l111 96h549l84 -96l-111 -96h-549zM252 819l110 96h431l81 -96l-110 -96h-430zM725 223l66 469l110 96l82 -96l-65 -469l-111 -96zM825 946l68 469l108 96l84 -96l-67 -469l-109 -96z" />
<glyph unicode="4" d="M49 946l70 490l110 96l82 -96l-69 -490l-109 -96zM156 819l110 96h490l84 -96l-111 -96h-489zM672 100l84 592l108 96l84 -96l-84 -592l-108 -96zM791 946l83 592l109 96l84 -96l-84 -592l-109 -96z" />
<glyph unicode="5" d="M6 223l6 51l111 97l82 -97l-6 -51l-111 -96zM92 840l109 768l168 -195l-66 -467l-123 -106h-88zM115 96l108 97h490l82 -97l-109 -96h-489zM215 819l111 96h491l82 -96l-111 -96h-489zM233 1638h877l-219 -192h-492zM750 223l65 469l111 96l82 -96l-66 -469l-111 -96z " />
<glyph unicode="6" d="M57 223l82 576h88l90 -107l-65 -469l-111 -96zM145 840l80 575l111 96l82 -96l-66 -469l-119 -106h-88zM166 96l110 97h488l84 -97l-111 -96h-487zM266 819l111 96h489l84 -96l-110 -96h-492zM371 1542l108 96h490l82 -96l-111 -96h-487zM799 223l65 469l111 96l84 -96 l-68 -469l-108 -96z" />
<glyph unicode="7" d="M55 0l25 172l420 627h94l-29 -203l-391 -596h-119zM152 1542l108 96h719l82 -96l-111 -96h-717zM641 840l27 182l260 381h4l-49 -356l-148 -207h-94z" />
<glyph unicode="8" d="M8 223l66 469l108 96l84 -96l-65 -469l-111 -96zM109 946l65 469l111 96l84 -96l-68 -469l-108 -96zM117 96l108 97h490l82 -97l-111 -96h-487zM215 819l111 96h489l84 -96l-111 -96h-489zM319 1542l111 96h488l81 -96l-108 -96h-490zM748 223l67 469l109 96l84 -96 l-66 -469l-111 -96zM850 946l65 469l111 96l82 -96l-66 -469l-108 -96z" />
<glyph unicode="9" d="M57 946l68 469l108 96l84 -96l-65 -469l-111 -96zM66 96l110 97h488l81 -97l-108 -96h-490zM166 819l110 96h492l82 -96l-111 -96h-489zM268 1542l111 96h487l84 -96l-110 -96h-488zM698 223l66 469l119 107h88l-80 -576l-111 -96zM799 946l65 469l111 96l84 -96 l-82 -575h-88z" />
<glyph unicode=":" d="M420 100l14 99l109 96l84 -96l-15 -99l-108 -96zM489 596l15 96l108 96l84 -96l-14 -96l-109 -96z" />
<glyph unicode=";" d="M408 -90l41 291l108 96l84 -96l-14 -97zM504 596l12 96l111 96l82 -96l-13 -96l-110 -96z" />
<glyph unicode="&#x3c;" d="M373 616l24 183h113l100 -289l-47 -336h-4zM403 840l27 182l309 442h4l-47 -336l-180 -288h-113z" />
<glyph unicode="=" d="M166 96l110 97h490l84 -97l-111 -96h-489zM266 809l111 98h489l84 -98l-110 -96h-490z" />
<glyph unicode="&#x3e;" d="M373 174l47 336l180 289h113l-27 -183l-309 -442h-4zM506 1128l47 336h4l186 -442l-24 -182h-113z" />
<glyph unicode="?" d="M164 1542l108 96h490l74 -86l-123 -106h-467zM203 100l110 97l84 -97l-110 -96zM240 354l47 338l110 96l82 -96l-47 -338l-110 -96zM430 819l135 117h76l102 -117l-110 -96h-119zM676 967l63 448l123 107l90 -107l-65 -469l-111 -96z" />
<glyph unicode="A" d="M-4 100l96 699h88l90 -107l-82 -592l-110 -96zM98 840l82 573l113 98l82 -96l-66 -469l-121 -106h-90zM225 819l111 96h489l84 -96l-110 -96h-492zM330 1542l108 96h490l82 -96l-111 -96h-487zM743 100l84 592l119 107h88l-98 -699l-109 -96zM860 946l66 469l112 98 l82 -98l-80 -575h-90z" />
<glyph unicode="B" d="M-8 31l108 768h88l91 -107l-66 -469zM18 0l220 193h491l82 -97l-109 -96h-684zM106 840l109 768l166 -193l-68 -469l-118 -106h-89zM229 819l111 96h489l84 -96l-110 -96h-490zM248 1638h684l84 -96l-111 -96h-491zM764 223l65 469l111 96l82 -96l-66 -469l-110 -96z M864 946l66 469l110 96l84 -96l-67 -469l-109 -96z" />
<glyph unicode="C" d="M8 223l80 576h88l90 -107l-65 -469l-111 -96zM94 840l80 575l111 96l84 -96l-68 -469l-119 -106h-88zM117 96l108 97h490l82 -97l-111 -96h-487zM319 1542l111 96h488l81 -96l-108 -96h-490zM748 223l8 51l110 97l82 -97l-6 -51l-111 -96zM909 1364l6 51l111 96l82 -96 l-6 -51l-111 -96z" />
<glyph unicode="D" d="M-8 31l108 768h88l91 -107l-66 -469zM18 0l220 193h491l82 -97l-109 -96h-684zM106 840l109 768l166 -193l-68 -469l-118 -106h-89zM248 1638h684l84 -96l-111 -96h-491zM764 223l65 469l121 107h86l-80 -576l-110 -96zM864 946l66 469l110 96l84 -96l-82 -575h-88z" />
<glyph unicode="E" d="M61 223l82 576h86l93 -107l-68 -469l-109 -96zM150 840l79 575l111 96l82 -96l-66 -469l-120 -106h-86zM170 96l111 97h487l84 -97l-111 -96h-487zM270 819l109 96h371l81 -96l-110 -96h-369zM373 1542l110 96h488l84 -96l-111 -96h-487z" />
<glyph unicode="F" d="M53 98l99 701h88l90 -107l-84 -594l-111 -96zM158 840l80 575l110 96l82 -96l-65 -469l-119 -106h-88zM279 819l110 96h369l82 -96l-109 -96h-371zM383 1542l109 96h489l82 -96l-111 -96h-487z" />
<glyph unicode="G" d="M45 223l80 576h88l90 -107l-65 -469l-111 -96zM131 840l82 575l109 96l84 -96l-66 -469l-121 -106h-88zM154 96l110 97h488l82 -97l-109 -96h-489zM356 1542l111 96h487l84 -96l-110 -96h-488zM625 819l108 96h314l-222 -192h-118zM786 223l66 469l219 193l-92 -662 l-111 -96z" />
<glyph unicode="H" d="M-10 100l98 699h88l90 -107l-84 -592l-108 -96zM94 840l99 698l108 96l84 -96l-84 -592l-119 -106h-88zM215 819l111 96h489l84 -96l-111 -96h-489zM731 100l84 592l119 107h88l-98 -699l-109 -96zM850 946l84 592l108 96l84 -96l-98 -698h-88z" />
<glyph unicode="I" d="M360 100l84 592l109 96l84 -96l-84 -592l-109 -96zM479 946l84 592l109 96l84 -96l-84 -592l-109 -96z" />
<glyph unicode="J" d="M6 223l6 51l111 97l84 -97l-8 -51l-111 -96zM115 96l110 97h488l84 -97l-111 -96h-487zM690 1542l111 96h117l83 -96l-110 -96h-119zM750 223l65 469l121 107h88l-82 -576l-108 -96zM852 946l66 469l110 96l82 -96l-80 -575h-88z" />
<glyph unicode="K" d="M-6 100l98 699h86l90 -107l-82 -592l-110 -96zM96 840l99 698l110 96l82 -96l-82 -592l-121 -106h-88zM219 819l109 96h118l84 -96l-110 -96h-119zM473 717l92 82h86l269 -609l-27 -190h-100zM502 922l522 716h98l-26 -190l-439 -608h-86z" />
<glyph unicode="L" d="M164 223l80 576h88l90 -107l-66 -469l-110 -96zM250 840l98 698l111 96l82 -96l-84 -592l-119 -106h-88zM272 96l111 97h487l82 -97l-108 -96h-490z" />
<glyph unicode="M" d="M-373 100l99 699h88l90 -107l-82 -592l-111 -96zM-268 840l82 575l108 96l84 -96l-65 -469l-121 -106h-88zM-43 1542l111 96h487l84 -96l-111 -96h-487zM369 100l84 592l110 96l82 -96l-84 -592l-108 -96zM487 946l68 469l109 96l84 -96l-68 -469l-109 -96zM698 1542 l111 96h487l82 -96l-108 -96h-490zM1110 100l84 592l119 107h88l-98 -699l-109 -96zM1229 946l65 469l111 96l84 -96l-82 -575h-88z" />
<glyph unicode="N" d="M-10 100l98 699h88l90 -107l-84 -592l-108 -96zM94 840l99 698l108 96l84 -96l-84 -592l-119 -106h-88zM393 1305l31 227h55l352 -412l-22 -168h-113zM731 100l84 592l119 107h88l-98 -699l-109 -96zM850 946l84 592l108 96l84 -96l-98 -698h-88z" />
<glyph unicode="O" d="M8 223l80 576h88l90 -107l-65 -469l-111 -96zM94 840l80 575l111 96l84 -96l-68 -469l-119 -106h-88zM117 96l108 97h490l82 -97l-111 -96h-487zM319 1542l111 96h488l81 -96l-108 -96h-490zM748 223l67 469l119 107h88l-80 -576l-111 -96zM850 946l65 469l111 96l82 -96 l-80 -575h-88z" />
<glyph unicode="P" d="M-4 100l98 699h88l90 -107l-84 -592l-108 -96zM102 840l109 768l166 -193l-66 -469l-121 -106h-88zM225 819l111 96h491l82 -96l-110 -96h-490zM246 1638h682l84 -96l-111 -96h-489zM860 946l68 469l108 96l84 -96l-65 -469l-111 -96z" />
<glyph unicode="Q" d="M8 223l80 576h88l90 -107l-65 -469l-111 -96zM94 840l80 575l111 96l84 -96l-68 -469l-119 -106h-88zM117 96l108 97h490l82 -97l-111 -96h-487zM319 1542l111 96h488l81 -96l-108 -96h-490zM567 426l41 295l140 -174l-41 -287zM748 223l67 469l119 107h88l-80 -576 l-111 -96zM850 946l65 469l111 96l82 -96l-80 -575h-88z" />
<glyph unicode="R" d="M-4 100l98 699h88l90 -107l-84 -592l-108 -96zM102 840l109 768l166 -193l-66 -469l-121 -106h-88zM225 819l111 96h491l82 -96l-110 -96h-490zM246 1638h682l84 -96l-111 -96h-489zM303 598l12 82h177l440 -604l-10 -76h-185zM860 946l68 469l108 96l84 -96l-65 -469 l-111 -96z" />
<glyph unicode="S" d="M6 223l6 51l111 97l84 -97l-8 -51l-111 -96zM111 946l65 469l111 96l82 -96l-66 -469l-110 -96zM115 96l110 97h488l84 -97l-111 -96h-487zM217 819l109 96h491l82 -96l-108 -96h-492zM319 1542l111 96h488l83 -96l-110 -96h-488zM750 223l65 469l111 96l82 -96l-66 -469 l-108 -96zM909 1364l9 51l110 96l82 -96l-6 -51l-111 -96z" />
<glyph unicode="T" d="M117 1542l108 96h693l81 -96l-108 -96h-221l-109 125l-141 -125h-221zM258 100l84 592l109 96l84 -96l-84 -592l-111 -96zM377 946l65 469l111 96l82 -96l-66 -469l-110 -96z" />
<glyph unicode="U" d="M-2 223l82 576h88l90 -107l-65 -469l-111 -96zM86 840l98 698l109 96l84 -96l-84 -592l-119 -106h-88zM106 96l111 97h488l83 -97l-110 -96h-488zM739 223l66 469l121 107h88l-82 -576l-109 -96zM842 946l82 592l110 96l84 -96l-98 -698h-88z" />
<glyph unicode="V" d="M31 709l14 90h180l191 -535l-37 -264h-72zM53 840l99 698l108 96l84 -96l-90 -635l-43 -63h-158zM422 0l37 264l340 535h182l-12 -90l-475 -709h-72zM803 903l88 635l110 96l84 -96l-98 -698h-160z" />
<glyph unicode="W" d="M-373 223l82 576h88l90 -107l-65 -469l-111 -96zM-285 840l99 698l108 96l84 -96l-84 -592l-119 -106h-88zM-262 96l108 97h490l82 -97l-111 -96h-487zM369 223l67 469l109 96l84 -96l-68 -469l-108 -96zM471 946l84 592l109 96l84 -96l-84 -592l-111 -96zM477 96l111 97 h487l84 -97l-110 -96h-488zM1110 223l66 469l120 107h88l-81 -576l-109 -96zM1212 946l82 592l111 96l84 -96l-98 -698h-88z" />
<glyph unicode="X" d="M-4 0l27 193l397 606h115l-29 -205l-391 -594h-119zM199 1446l26 192h121l221 -596l-26 -202h-115zM549 594l26 205h115l228 -606l-27 -193h-121zM582 840l28 202l391 596h119l-26 -192l-398 -606h-114z" />
<glyph unicode="Y" d="M2 96l111 97h589l82 -97l-110 -96h-588zM96 946l84 592l109 96l84 -96l-84 -592l-109 -96zM203 819l110 96h490l84 -96l-111 -96h-489zM735 223l68 469l108 96l84 -96l-65 -469l-111 -96zM838 946l84 592l108 96l84 -96l-84 -592l-108 -96z" />
<glyph unicode="Z" d="M74 96l108 97h533l84 -97l-111 -96h-532zM182 236l41 294l217 269h95l-29 -203l-279 -360h-45zM319 1542l111 96h531l81 -96l-108 -96h-531zM582 840l28 202l279 361h45l-41 -297l-217 -266h-94z" />
<glyph unicode="[" d="M201 31l108 768h88l90 -107l-65 -469zM227 0l219 193h119l127 -146l-8 -47h-457zM315 840l107 768l166 -193l-66 -469l-119 -106h-88zM457 1638h458l-6 -47l-168 -145h-118z" />
<glyph unicode="\" d="M201 1466l24 172h121l225 -575l-30 -223h-95zM545 575l30 224h95l245 -627l-24 -172h-121z" />
<glyph unicode="]" d="M201 0l6 47l168 146h119l165 -193h-458zM424 1591l8 47h457l-219 -192h-119zM528 223l66 469l119 107h88l-107 -768zM629 946l65 469l221 193l-108 -768h-88z" />
<glyph unicode="_" d="M217 96l109 97h491l82 -97l-108 -96h-492z" />
<glyph unicode="a" d="M-4 100l96 699h88l90 -107l-82 -592l-110 -96zM98 840l82 573l113 98l82 -96l-66 -469l-121 -106h-90zM225 819l111 96h489l84 -96l-110 -96h-492zM330 1542l108 96h490l82 -96l-111 -96h-487zM743 100l84 592l119 107h88l-98 -699l-109 -96zM860 946l66 469l112 98 l82 -98l-80 -575h-90z" />
<glyph unicode="b" d="M-8 31l108 768h88l91 -107l-66 -469zM18 0l220 193h491l82 -97l-109 -96h-684zM106 840l109 768l166 -193l-68 -469l-118 -106h-89zM229 819l111 96h489l84 -96l-110 -96h-490zM248 1638h684l84 -96l-111 -96h-491zM764 223l65 469l111 96l82 -96l-66 -469l-110 -96z M864 946l66 469l110 96l84 -96l-67 -469l-109 -96z" />
<glyph unicode="c" d="M8 223l80 576h88l90 -107l-65 -469l-111 -96zM94 840l80 575l111 96l84 -96l-68 -469l-119 -106h-88zM117 96l108 97h490l82 -97l-111 -96h-487zM319 1542l111 96h488l81 -96l-108 -96h-490zM748 223l8 51l110 97l82 -97l-6 -51l-111 -96zM909 1364l6 51l111 96l82 -96 l-6 -51l-111 -96z" />
<glyph unicode="d" d="M-8 31l108 768h88l91 -107l-66 -469zM18 0l220 193h491l82 -97l-109 -96h-684zM106 840l109 768l166 -193l-68 -469l-118 -106h-89zM248 1638h684l84 -96l-111 -96h-491zM764 223l65 469l121 107h86l-80 -576l-110 -96zM864 946l66 469l110 96l84 -96l-82 -575h-88z" />
<glyph unicode="e" d="M61 223l82 576h86l93 -107l-68 -469l-109 -96zM150 840l79 575l111 96l82 -96l-66 -469l-120 -106h-86zM170 96l111 97h487l84 -97l-111 -96h-487zM270 819l109 96h371l81 -96l-110 -96h-369zM373 1542l110 96h488l84 -96l-111 -96h-487z" />
<glyph unicode="f" d="M53 98l99 701h88l90 -107l-84 -594l-111 -96zM158 840l80 575l110 96l82 -96l-65 -469l-119 -106h-88zM279 819l110 96h369l82 -96l-109 -96h-371zM383 1542l109 96h489l82 -96l-111 -96h-487z" />
<glyph unicode="g" d="M45 223l80 576h88l90 -107l-65 -469l-111 -96zM131 840l82 575l109 96l84 -96l-66 -469l-121 -106h-88zM154 96l110 97h488l82 -97l-109 -96h-489zM356 1542l111 96h487l84 -96l-110 -96h-488zM625 819l108 96h314l-222 -192h-118zM786 223l66 469l219 193l-92 -662 l-111 -96z" />
<glyph unicode="h" d="M-10 100l98 699h88l90 -107l-84 -592l-108 -96zM94 840l99 698l108 96l84 -96l-84 -592l-119 -106h-88zM215 819l111 96h489l84 -96l-111 -96h-489zM731 100l84 592l119 107h88l-98 -699l-109 -96zM850 946l84 592l108 96l84 -96l-98 -698h-88z" />
<glyph unicode="i" d="M360 100l84 592l109 96l84 -96l-84 -592l-109 -96zM479 946l84 592l109 96l84 -96l-84 -592l-109 -96z" />
<glyph unicode="j" d="M-2 223l6 51l111 97l82 -97l-7 -51l-110 -96zM106 96l109 97h490l81 -97l-110 -96h-488zM741 223l66 469l121 107h86l-80 -576l-111 -96zM842 946l84 596l110 96l82 -96l-98 -702h-88z" />
<glyph unicode="k" d="M-6 100l98 699h86l90 -107l-82 -592l-110 -96zM96 840l99 698l110 96l82 -96l-82 -592l-121 -106h-88zM219 819l109 96h118l84 -96l-110 -96h-119zM473 717l92 82h86l269 -609l-27 -190h-100zM502 922l522 716h98l-26 -190l-439 -608h-86z" />
<glyph unicode="l" d="M164 223l80 576h88l90 -107l-66 -469l-110 -96zM250 840l98 698l111 96l82 -96l-84 -592l-119 -106h-88zM272 96l111 97h487l82 -97l-108 -96h-490z" />
<glyph unicode="m" d="M-12 96l98 703h88l90 -107l-84 -596l-110 -96zM92 840l98 702l111 96l84 -96l-84 -596l-121 -106h-88zM358 1069l50 358h4l155 -383l-28 -204h-74zM582 840l28 204l262 383h5l-52 -358l-170 -229h-73zM731 96l84 596l121 107h88l-98 -703l-111 -96zM852 946l84 596 l111 96l81 -96l-98 -702h-88z" />
<glyph unicode="n" d="M-10 100l98 699h88l90 -107l-84 -592l-108 -96zM94 840l99 698l108 96l84 -96l-84 -592l-119 -106h-88zM393 1305l31 227h55l352 -412l-22 -168h-113zM731 100l84 592l119 107h88l-98 -699l-109 -96zM850 946l84 592l108 96l84 -96l-98 -698h-88z" />
<glyph unicode="o" d="M8 223l80 576h88l90 -107l-65 -469l-111 -96zM94 840l80 575l111 96l84 -96l-68 -469l-119 -106h-88zM117 96l108 97h490l82 -97l-111 -96h-487zM319 1542l111 96h488l81 -96l-108 -96h-490zM748 223l67 469l119 107h88l-80 -576l-111 -96zM850 946l65 469l111 96l82 -96 l-80 -575h-88z" />
<glyph unicode="p" d="M-4 100l98 699h88l90 -107l-84 -592l-108 -96zM102 840l109 768l166 -193l-66 -469l-121 -106h-88zM225 819l111 96h491l82 -96l-110 -96h-490zM246 1638h682l84 -96l-111 -96h-489zM860 946l68 469l108 96l84 -96l-65 -469l-111 -96z" />
<glyph unicode="q" d="M8 223l80 576h88l90 -107l-65 -469l-111 -96zM94 840l80 575l111 96l84 -96l-68 -469l-119 -106h-88zM117 96l108 97h490l82 -97l-111 -96h-487zM319 1542l111 96h488l81 -96l-108 -96h-490zM567 426l41 295l140 -174l-41 -287zM748 223l67 469l119 107h88l-80 -576 l-111 -96zM850 946l65 469l111 96l82 -96l-80 -575h-88z" />
<glyph unicode="r" d="M-4 100l98 699h88l90 -107l-84 -592l-108 -96zM102 840l109 768l166 -193l-66 -469l-121 -106h-88zM225 819l111 96h491l82 -96l-110 -96h-490zM246 1638h682l84 -96l-111 -96h-489zM303 598l12 82h177l440 -604l-10 -76h-185zM860 946l68 469l108 96l84 -96l-65 -469 l-111 -96z" />
<glyph unicode="s" d="M6 223l6 51l111 97l84 -97l-8 -51l-111 -96zM111 946l65 469l111 96l82 -96l-66 -469l-110 -96zM115 96l110 97h488l84 -97l-111 -96h-487zM217 819l109 96h491l82 -96l-108 -96h-492zM319 1542l111 96h488l83 -96l-110 -96h-488zM750 223l65 469l111 96l82 -96l-66 -469 l-108 -96zM909 1364l9 51l110 96l82 -96l-6 -51l-111 -96z" />
<glyph unicode="t" d="M117 1542l108 96h693l81 -96l-108 -96h-221l-109 125l-141 -125h-221zM258 100l84 592l109 96l84 -96l-84 -592l-111 -96zM377 946l65 469l111 96l82 -96l-66 -469l-110 -96z" />
<glyph unicode="u" d="M-2 223l82 576h88l90 -107l-65 -469l-111 -96zM86 840l98 698l109 96l84 -96l-84 -592l-119 -106h-88zM106 96l111 97h488l83 -97l-110 -96h-488zM739 223l66 469l121 107h88l-82 -576l-109 -96zM842 946l82 592l110 96l84 -96l-98 -698h-88z" />
<glyph unicode="v" d="M31 709l14 90h180l191 -535l-37 -264h-72zM53 840l99 698l108 96l84 -96l-90 -635l-43 -63h-158zM422 0l37 264l340 535h182l-12 -90l-475 -709h-72zM803 903l88 635l110 96l84 -96l-98 -698h-160z" />
<glyph unicode="w" d="M-12 96l98 701h88l90 -107l-82 -594l-110 -96zM92 840l98 698l111 98l84 -98l-84 -594l-121 -104h-88zM238 211l51 358l170 228h73l-28 -205l-262 -381h-4zM547 592l28 205h74l107 -228l-51 -358h-5zM731 96l84 594l121 107h88l-98 -701l-111 -96zM852 944l82 594l110 98 l84 -98l-98 -698h-88z" />
<glyph unicode="x" d="M-4 0l27 193l397 606h115l-29 -205l-391 -594h-119zM199 1446l26 192h121l221 -596l-26 -202h-115zM549 594l26 205h115l228 -606l-27 -193h-121zM582 840l28 202l391 596h119l-26 -192l-398 -606h-114z" />
<glyph unicode="y" d="M80 1507l18 131h162l199 -616l-25 -184h-135zM254 96l84 594l111 96l81 -96l-84 -594l-108 -96zM475 838l27 184l372 616h162l-18 -131l-408 -669h-135z" />
<glyph unicode="z" d="M74 96l108 97h533l84 -97l-111 -96h-532zM182 236l41 294l217 269h95l-29 -203l-279 -360h-45zM319 1542l111 96h531l81 -96l-108 -96h-531zM582 840l28 202l279 361h45l-41 -297l-217 -266h-94z" />
<glyph unicode="|" d="M346 0l98 692l109 96l84 -96l-98 -692l-109 -96zM479 946l99 692l108 97l84 -97l-98 -692l-109 -96z" />
<glyph unicode="&#xa0;" />
<glyph unicode="&#x2000;" horiz-adv-x="867" />
<glyph unicode="&#x2001;" horiz-adv-x="1735" />
<glyph unicode="&#x2002;" horiz-adv-x="867" />
<glyph unicode="&#x2003;" horiz-adv-x="1735" />
<glyph unicode="&#x2004;" horiz-adv-x="578" />
<glyph unicode="&#x2005;" horiz-adv-x="433" />
<glyph unicode="&#x2006;" horiz-adv-x="289" />
<glyph unicode="&#x2007;" horiz-adv-x="289" />
<glyph unicode="&#x2008;" horiz-adv-x="216" />
<glyph unicode="&#x2009;" horiz-adv-x="347" />
<glyph unicode="&#x200a;" horiz-adv-x="96" />
<glyph unicode="&#x202f;" horiz-adv-x="347" />
<glyph unicode="&#x205f;" horiz-adv-x="433" />
<glyph unicode="&#x25fc;" horiz-adv-x="1638" d="M0 0v1638h1638v-1638h-1638z" />
</font>
</defs>
</svg>
